<svg width="414" height="415" fill="none" xmlns="http://www.w3.org/2000/svg"><path opacity=".2" d="M206.444 400.392c-106.33 0-192.836-86.506-192.836-192.836 0-106.33 86.506-192.836 192.836-192.836 106.329 0 192.835 86.506 192.835 192.836 0 106.33-86.506 192.836-192.835 192.836zm146.764-339.6a206.933 206.933 0 10-292.28 293.013 206.933 206.933 0 00292.28-293.013z" fill="#fff"/><path opacity=".2" d="M323.99 320.153l-40.074-49.383a7.363 7.363 0 00-10.349-1.073 7.363 7.363 0 00-1.081 10.349l40.814 50.296a162.699 162.699 0 01-107.183 40.169c-90.096 0-163.395-73.298-163.395-163.395 0-58.48 30.889-109.874 77.201-138.75l40.146 49.473a7.36 7.36 0 1011.43-9.276l-38.555-47.51a162.38 162.38 0 0173.173-17.332c90.097 0 163.395 73.299 163.395 163.395a162.824 162.824 0 01-45.522 113.037zM206.117 29.001A178.116 178.116 0 10332.064 81.17 176.949 176.949 0 00206.117 29z" fill="#fff"/></svg>