<svg width="126" height="38" fill="none" xmlns="http://www.w3.org/2000/svg"><rect x="4.846" y="8.313" width="29.738" height="29.148" rx="8" fill="#FF000D" fill-opacity=".6"/><rect x="1.461" y="4.999" width="35.847" height="32.75" rx="7.75" stroke="#B6353B" stroke-width=".5"/><rect x=".5" y=".5" width="37.77" height="37" rx="7.5" stroke="#FC666D"/><path d="M56.368 19.52c0 .818-.268 1.566-.805 2.242-.536.659-1.252 1.228-2.146 1.709-.894.463-1.937.828-3.129 1.095a17.45 17.45 0 01-3.666.373h-2.235c-.864 0-1.699-.044-2.504-.133v6.221c0 .445-.238.81-.715 1.095-.477.285-1.088.427-1.833.427-.685 0-1.281-.142-1.788-.427-.507-.303-.76-.659-.76-1.068V15.728c0-.712.313-1.273.939-1.682.626-.427 1.4-.739 2.325-.934.923-.196 1.907-.32 2.95-.374a58.97 58.97 0 012.906-.08c1.341 0 2.638.124 3.89.373 1.28.232 2.398.579 3.352 1.042.984.445 1.758 1.014 2.325 1.708.596.677.894 1.451.894 2.323v1.415zm-5.096-1.416c0-.41-.15-.765-.447-1.068-.299-.302-.7-.552-1.208-.747a6.92 6.92 0 00-1.609-.428 10.374 10.374 0 00-1.833-.16c-.655 0-1.37.018-2.146.054-.775.035-1.49.098-2.146.187v5.74c.656.071 1.342.125 2.057.16.745.036 1.43.054 2.056.054.626 0 1.252-.045 1.878-.134a7.943 7.943 0 001.699-.4c.506-.196.909-.445 1.207-.748.328-.32.492-.694.492-1.121v-1.389zm8.215.454c0-.819.238-1.584.715-2.296.477-.712 1.147-1.326 2.012-1.842.864-.534 1.892-.953 3.084-1.255 1.222-.303 2.564-.454 4.024-.454 1.341 0 2.593.151 3.755.454 1.192.303 2.22.72 3.085 1.255.894.534 1.594 1.157 2.1 1.869.537.712.805 1.477.805 2.296v8.143c0 .801-.268 1.558-.804 2.27-.507.694-1.207 1.308-2.101 1.842-.865.516-1.893.935-3.085 1.255-1.162.303-2.414.454-3.755.454a15.21 15.21 0 01-3.755-.454c-1.192-.303-2.236-.712-3.13-1.228-.894-.534-1.61-1.14-2.146-1.816-.536-.694-.804-1.415-.804-2.162v-8.33zm5.096 8.224c0 .374.12.73.358 1.068.268.32.61.605 1.028.854.447.25.954.445 1.52.587a7.308 7.308 0 001.788.214c.626 0 1.222-.071 1.788-.213a5.462 5.462 0 001.476-.588c.447-.267.79-.56 1.028-.88.268-.34.402-.695.402-1.069v-8.197c0-.391-.134-.756-.402-1.095a3.023 3.023 0 00-.984-.907 4.964 4.964 0 00-1.475-.614 6.71 6.71 0 00-1.833-.24 6.71 6.71 0 00-1.833.24 5.618 5.618 0 00-1.52.614 3.026 3.026 0 00-.983.907 1.863 1.863 0 00-.358 1.095v8.224zm28.535-4.913c.596 0 1.163-.053 1.699-.16a7.047 7.047 0 001.475-.48c.447-.214.805-.464 1.073-.748.268-.303.402-.641.402-1.015v-1.388c0-.428-.163-.793-.491-1.095-.298-.303-.7-.552-1.207-.748a6.924 6.924 0 00-1.654-.427 12.397 12.397 0 00-1.833-.133c-.298 0-.641.008-1.028.026l-1.163.054c-.387.018-.76.044-1.118.08-.357.035-.655.062-.894.08v5.954h4.74zm-4.739 3.044V31c0 .445-.238.81-.715 1.095-.477.285-1.088.427-1.833.427-.685 0-1.281-.142-1.788-.427-.507-.285-.76-.65-.76-1.095V15.701c0-.73.343-1.3 1.028-1.709.686-.409 1.52-.711 2.504-.907a18.393 18.393 0 013.219-.374c1.132-.053 2.16-.08 3.084-.08 1.282 0 2.504.133 3.666.4s2.19.641 3.085 1.122c.894.48 1.609 1.059 2.145 1.735.537.659.805 1.389.805 2.19v1.415c0 .854-.253 1.602-.76 2.242-.507.623-1.207 1.175-2.101 1.656.924.463 1.639 1.032 2.146 1.709.507.658.76 1.388.76 2.19V31c0 .445-.253.81-.76 1.095-.507.285-1.103.427-1.788.427-.746 0-1.356-.142-1.833-.427-.477-.285-.716-.65-.716-1.095v-3.71a1.4 1.4 0 00-.402-.989c-.268-.302-.626-.552-1.073-.747a6.166 6.166 0 00-1.52-.481 8.451 8.451 0 00-1.654-.16H88.38zM106.51 14.26c0-.41.238-.766.715-1.068.477-.303 1.088-.454 1.833-.454.507 0 .969.089 1.386.267.417.16.73.391.939.694v-.027c.864.997 1.684 1.95 2.458 2.857.775.908 1.535 1.807 2.28 2.697.775.872 1.55 1.762 2.325 2.67.775.907 1.594 1.86 2.459 2.857V14.259c0-.409.238-.765.715-1.067.477-.303 1.088-.454 1.833-.454.685 0 1.281.151 1.788.454.507.302.76.658.76 1.067V31.08c0 .339-.089.606-.268.801a1.784 1.784 0 01-.671.454 2.714 2.714 0 01-.76.214 3.98 3.98 0 01-.536.053c-.447 0-.835-.044-1.162-.133a3.47 3.47 0 01-.805-.294 7.699 7.699 0 01-.537-.347 5.586 5.586 0 01-.357-.32l-9.344-10.894V31.08c0 .445-.253.81-.76 1.095-.476.285-1.058.427-1.743.427-.745 0-1.356-.142-1.833-.427-.477-.285-.715-.65-.715-1.095V14.26z" fill="#fff"/><g style="mix-blend-mode:overlay"><path d="M17.937 11.743a2.19 2.19 0 00-.923 1.777v17.69c0 .702.36 1.259.966 1.654l.273-.419-.273.419c.584.38 1.261.563 2.012.563.797 0 1.499-.177 2.067-.571l-.27-.39.27.39c.58-.401.911-.958.911-1.646V13.52c0-.613-.314-1.329-.912-1.769-.332-.245-.695-.33-1.04-.36a7.724 7.724 0 00-.75-.013l-.276.003-.252-.003a7.319 7.319 0 00-.741.013c-.346.03-.718.113-1.062.352z" fill="#FF414A"/><path d="M17.937 11.743h0a2.19 2.19 0 00-.923 1.777v17.69c0 .702.36 1.259.966 1.654l.273-.419-.273.419c.584.38 1.261.563 2.012.563.797 0 1.499-.177 2.067-.571l-.27-.39.27.39c.58-.401.911-.958.911-1.646V13.52c0-.613-.314-1.329-.912-1.769-.332-.245-.695-.33-1.04-.36a7.724 7.724 0 00-.75-.013l-.276.003-.252-.003a7.319 7.319 0 00-.741.013c-.346.03-.718.113-1.062.352z" stroke="#FFBFBF"/></g></svg>